<svg xmlns="http://www.w3.org/2000/svg" viewBox="0 70 270 270"><path d="M105 70H55V120H105V70Z" fill="#FFFFFF"></path><path d="M160 70H110V120H160V70Z" fill="#FFFFFF"></path><path d="M215 70H165V120H215V70Z" fill="#FFFFFF"></path><path d="M50 125H0V175H50V125Z" fill="#FFFFFF"></path><path d="M270 125H220V175H270V125Z" fill="#FFFFFF"></path><path d="M50 180H0V230H50V180Z" fill="#FFFFFF"></path><path d="M270 180H220V230H270V180Z" fill="#FFFFFF"></path><path d="M50 235H0V285H50V235Z" fill="#FFFFFF"></path><path d="M270 235H220V285H270V235Z" fill="#FFFFFF"></path><path d="M105 290H55V340H105V290Z" fill="#FFFFFF"></path><path d="M160 290H110V340H160V290Z" fill="#FFFFFF"></path><path d="M215 290H165V340H215V290Z" fill="#FFFFFF"></path><path d="M105 125H55V175H105V125Z" fill="#A8CDF7"></path><path d="M160 125H110V175H160V125Z" fill="#A8CDF7"></path><path d="M215 125H165V175H215V125Z" fill="#A8CDF7"></path><path d="M105 180H55V230H105V180Z" fill="#A8CDF7"></path><path d="M215 180H165V230H215V180Z" fill="#A8CDF7"></path><path d="M105 235H55V285H105V235Z" fill="#A8CDF7"></path><path d="M160 235H110V285H160V235Z" fill="#A8CDF7"></path><path d="M215 235H165V285H215V235Z" fill="#A8CDF7"></path><path d="M160 180H110V230H160V180Z" fill="#0A1F3D"></path></svg>
